<?xml version="1.0" encoding="utf-8"?>
<!-- Generator: Adobe Illustrator 16.0.0, SVG Export Plug-In . SVG Version: 6.00 Build 0)  -->
<!DOCTYPE svg PUBLIC "-//W3C//DTD SVG 1.1//EN" "http://www.w3.org/Graphics/SVG/1.1/DTD/svg11.dtd">
<svg version="1.1" id="Layer_1" xmlns="http://www.w3.org/2000/svg" xmlns:xlink="http://www.w3.org/1999/xlink" x="0px" y="0px"
	 width="166.139px" height="166.139px" viewBox="0 0 166.139 166.139" enable-background="new 0 0 166.139 166.139"
	 xml:space="preserve">
<g>
	<path fill="#ED174D" d="M151.604,119.114c-2.138-21.006-4.091-40.001-6.334-61.595c-0.051-0.483-0.151-0.955-0.303-1.412
		c0.137-0.669,0.174-1.357,0.105-2.031c-0.315-3.125-0.758-7.491-1.122-11.078l-0.599-5.891c-0.009-0.086-0.019-0.179-0.029-0.275
		c-0.048-0.635-0.188-1.265-0.418-1.877c-0.285-0.803-0.703-1.524-1.243-2.146l-0.077-0.098c-0.41-0.51-0.876-1.034-1.38-1.562
		c-0.408-0.432-0.855-0.872-1.323-1.31c-1.634-1.525-3.461-2.942-5.442-4.22l-0.563-6.567c-0.186-2.136-1.172-3.949-2.782-5.107
		c-0.147-0.112-0.435-0.328-0.865-0.63c-0.621-0.435-1.319-0.89-2.102-1.366C115.559,5.077,100.205,1.446,82.722,1.446
		c-0.279,0-0.556,0.001-0.811,0.002c-0.31-0.002-0.619-0.002-0.926-0.002c-17.197,0-32.391,3.545-43.964,10.266
		c-1.054,0.628-2.01,1.251-2.841,1.854c-0.238,0.171-0.404,0.297-0.494,0.364l-0.075,0.058c-0.023,0.016-0.045,0.033-0.067,0.049
		l-1.722,1.298l0.227,0.31c-0.637,0.97-1.029,2.122-1.138,3.389l-0.562,6.566c-1.983,1.275-3.81,2.691-5.442,4.216
		c-0.738,0.688-1.419,1.385-2.027,2.071c-0.483,0.545-0.819,0.972-1.016,1.233c-0.829,1.102-1.312,2.377-1.402,3.695
		c-0.004,0.047-0.01,0.093-0.015,0.141l-0.468,4.603c-0.293,2.883-0.666,6.554-0.985,9.708l-0.281,2.781
		c-0.058,0.569-0.044,1.132,0.038,1.688c-0.204,0.542-0.337,1.11-0.398,1.694c-2.229,21.454-4.186,40.477-6.342,61.683
		c-0.29,2.841,1.247,5.579,3.823,6.814c19.854,9.516,40.711,22.129,61.995,37.492c1.166,0.841,2.541,1.288,3.978,1.288
		c1.438,0,2.812-0.447,3.979-1.288c21.283-15.365,42.144-27.979,61.993-37.492C150.355,124.696,151.893,121.955,151.604,119.114z"/>
	<path fill="#1B2740" d="M149.295,119.349c-2.141-21.033-4.094-40.026-6.332-61.59c-0.057-0.53-0.205-1.04-0.438-1.511
		c0.221-0.616,0.307-1.28,0.24-1.939c-0.316-3.124-0.76-7.49-1.122-11.077l-0.601-5.893c-0.009-0.092-0.019-0.188-0.029-0.289
		c-0.029-0.437-0.125-0.875-0.287-1.297c-0.193-0.553-0.477-1.041-0.844-1.455c-0.036-0.045-0.069-0.088-0.104-0.13
		c-0.368-0.458-0.792-0.936-1.253-1.42c-0.38-0.398-0.794-0.807-1.228-1.214c-1.791-1.673-3.833-3.206-6.072-4.561l-0.661-7.723
		c-0.143-1.649-0.891-2.757-1.842-3.434l-0.016-0.012c-0.133-0.099-0.398-0.302-0.812-0.589c-0.579-0.407-1.229-0.831-1.952-1.271
		C114.733,7.286,99.788,3.766,82.722,3.766c-0.279,0-0.559,0.001-0.812,0.003c-0.31-0.001-0.619-0.003-0.924-0.003
		c-16.788,0-31.573,3.434-42.777,9.939c-0.994,0.592-1.893,1.178-2.671,1.742c-0.217,0.156-0.37,0.271-0.456,0.337l-0.036,0.027h0
		c-0.942,0.68-1.682,1.783-1.822,3.42l-0.662,7.72c-2.241,1.355-4.28,2.887-6.071,4.559c-0.684,0.64-1.315,1.284-1.875,1.916
		c-0.456,0.515-0.758,0.902-0.898,1.089c-0.57,0.758-0.896,1.624-0.944,2.513c-0.007,0.053-0.013,0.108-0.019,0.165l-0.468,4.603
		c-0.292,2.881-0.665,6.552-0.984,9.705l-0.281,2.785c-0.06,0.581-0.003,1.162,0.159,1.71c-0.28,0.514-0.458,1.083-0.52,1.677
		c-2.23,21.468-4.186,40.491-6.341,61.678c-0.191,1.872,0.821,3.675,2.519,4.488c19.976,9.572,40.954,22.258,62.349,37.702
		c0.768,0.555,1.673,0.848,2.62,0.848c0.946,0,1.852-0.293,2.619-0.848c21.398-15.447,42.376-28.133,62.352-37.702
		C148.474,123.024,149.485,121.221,149.295,119.349z"/>
	<g>
		<path fill="#ED174D" d="M138.51,58.222c-0.868-0.765-1.738-1.526-2.608-2.287c-0.785-0.684-1.61-1.348-2.462-1.993
			c1.575,16.473,3.046,31.957,4.665,49.172c-14.893-11.718-26.549-13.664-26.542-13.686c16.614,6.358,24.35,19.657,27.495,26.76
			c-1.742,0.886-3.499,1.807-5.27,2.746c-2.069-4.599-4.854-9.032-8.263-13.14c-3.54-4.265-7.661-8.079-12.249-11.294
			c-9.547-6.684-20.394-10.306-31.764-10.296c-11.259,0.003-22.018,3.579-31.509,10.162c-4.561,3.165-8.672,6.925-12.217,11.132
			c-3.463,4.112-6.303,8.565-8.427,13.187c-1.638-0.866-3.265-1.713-4.878-2.535c3.161-7.114,10.899-20.37,27.473-26.713
			c0.008,0.02-11.595,1.959-26.439,13.611c1.621-17.216,3.09-32.702,4.667-49.181c-0.896,0.67-1.76,1.367-2.581,2.082
			c-0.83,0.727-1.661,1.453-2.49,2.183c-2.091,20.134-4.066,39.318-6.34,61.668c19.31,9.254,40.304,21.701,63.036,38.11
			c22.731-16.409,43.724-28.856,63.036-38.11C142.572,97.483,140.598,78.325,138.51,58.222z M34.034,120.035
			c2.561-5.802,6.462-11.384,11.309-16.139c1.241-1.006,3.752-2.847,6.792-3.966c1.243-0.408,2.391-0.695,3.41-0.858
			c0.542-0.068,1.045-0.105,1.546-0.108c0.135-0.003,0.267-0.006,0.401-0.006c0.002-0.014,0.007-0.03,0.01-0.047
			c2.122,0.009,3.633,0.729,4.504,2.124C48.304,104.617,39.434,113.101,34.034,120.035z M37.388,123.07
			c6.59-9.04,15.16-15.162,25.683-17.834c-0.503,3.267-3.341,7.741-8.411,13.138c-3.065,3.239-5.624,6.714-7.625,10.312
			C43.778,126.729,40.559,124.857,37.388,123.07z M79.207,149.951c-9.637-6.936-18.958-13.15-27.958-18.7
			c1.812-3.57,4.298-7.064,7.413-10.375c5.709-6.067,8.8-11.184,9.392-15.403c0.043-0.318,0.068-0.643,0.076-0.957
			c0.037-1.617-0.403-3.028-0.876-4.309c-1.509-4.066-5.566-5.401-9.134-5.675c6.633-3.516,13.928-5.552,21.337-5.869
			C79.372,109.091,79.29,129.522,79.207,149.951z M84.47,149.908c-0.085-20.405-0.171-40.811-0.257-61.213
			c7.176,0.392,14.243,2.403,20.661,5.79c-3.603,0.267-7.703,1.601-9.229,5.694c-0.475,1.286-0.914,2.699-0.88,4.311
			c0.008,0.308,0.032,0.634,0.076,0.96c0.584,4.214,3.67,9.328,9.375,15.382c3.225,3.431,5.774,7.054,7.595,10.756
			C103.003,137.041,93.888,143.13,84.47,149.908z M116.043,129.006c-2.025-3.732-4.647-7.328-7.822-10.683
			c-5.064-5.382-7.896-9.852-8.394-13.12c10.639,2.685,19.278,8.893,25.894,18.091c0.009,0.015,0.019,0.031,0.029,0.044
			C122.559,125.14,119.32,127.031,116.043,129.006z M100.895,101.002c0.875-1.4,2.386-2.121,4.511-2.132
			c0.004,0.013,0.008,0.029,0.01,0.043c0.132,0.003,0.264,0.003,0.398,0.006c0.493,0.003,1.012,0.041,1.521,0.106
			c1.042,0.159,2.191,0.447,3.423,0.85c3.587,1.315,6.398,3.582,7.46,4.509c4.666,4.702,8.417,10.188,10.873,15.878
			C123.716,113.27,114.796,104.609,100.895,101.002z"/>
		<path fill="#ED174D" d="M58.079,45.635c1.357-0.275,2.071-0.96,2.136-2.091c0.022-0.372,0.042-0.742,0.065-1.114
			c-0.52,0.094-1.038,0.194-1.558,0.296c-0.022,0.373-0.046,0.744-0.071,1.117c-0.018,0.294-0.182,0.471-0.493,0.533
			c-0.306,0.062-0.45-0.053-0.432-0.348c0.105-1.57,0.207-3.141,0.309-4.711c0.021-0.299,0.179-0.478,0.479-0.539
			c0.002-0.001,0.004-0.001,0.008-0.002c0.302-0.058,0.443,0.062,0.424,0.356c-0.021,0.372-0.045,0.743-0.068,1.114
			c0.516-0.102,1.03-0.2,1.545-0.296c0.023-0.373,0.043-0.742,0.067-1.115c0.066-1.128-0.565-1.576-1.893-1.307
			c-1.323,0.271-2.027,0.988-2.105,2.118c-0.11,1.571-0.219,3.144-0.327,4.714C56.085,45.496,56.723,45.908,58.079,45.635z"/>
		<path fill="#ED174D" d="M63.134,44.726c1.355-0.215,2.059-0.872,2.107-1.999c0.071-1.569,0.142-3.135,0.212-4.703
			c0.049-1.127-0.588-1.602-1.912-1.392c-1.323,0.213-2.017,0.9-2.08,2.029c-0.087,1.568-0.175,3.136-0.262,4.705
			C61.136,44.501,61.779,44.941,63.134,44.726z M63.005,38.398c0.014-0.297,0.172-0.471,0.47-0.518c0.002,0,0.006-0.002,0.009-0.002
			c0.3-0.044,0.444,0.08,0.429,0.374c-0.075,1.569-0.152,3.135-0.229,4.704c-0.015,0.293-0.178,0.463-0.486,0.514
			c-0.307,0.05-0.452-0.074-0.437-0.368C62.841,41.535,62.922,39.965,63.005,38.398z"/>
		<path fill="#ED174D" d="M67.956,40.182c0.281,1.211,0.568,2.427,0.856,3.642c0.516-0.056,1.031-0.111,1.546-0.16
			c0.082-2.612,0.16-5.226,0.239-7.837c-0.476,0.046-0.957,0.095-1.434,0.149c-0.043,1.287-0.091,2.575-0.134,3.861
			c-0.3-1.25-0.595-2.497-0.888-3.745c-0.502,0.061-1.008,0.124-1.513,0.191c-0.109,2.614-0.218,5.229-0.328,7.844
			c0.505-0.065,1.009-0.13,1.514-0.188C67.862,42.685,67.91,41.433,67.956,40.182z"/>
		<path fill="#ED174D" d="M75.373,36.708c0.008-0.415,0.015-0.832,0.022-1.248c-1.2,0.065-2.4,0.152-3.601,0.255
			c-0.071,2.611-0.144,5.226-0.216,7.837c0.523-0.046,1.043-0.088,1.565-0.125c0.024-1.098,0.052-2.193,0.076-3.29
			c0.604-0.044,1.204-0.083,1.806-0.119c0.006-0.415,0.016-0.834,0.022-1.252c-0.599,0.034-1.199,0.074-1.799,0.117
			c0.014-0.68,0.032-1.361,0.048-2.041C73.988,36.791,74.682,36.749,75.373,36.708z"/>
		<path fill="#ED174D" d="M79.864,36.551c0.001-0.416,0.001-0.833,0.004-1.25c-1.2,0.02-2.401,0.058-3.602,0.114
			c-0.037,2.61-0.075,5.222-0.114,7.833c1.226-0.059,2.454-0.096,3.68-0.115c0.002-0.418,0.003-0.833,0.006-1.25
			c-0.704,0.011-1.406,0.028-2.11,0.052c0.008-0.681,0.015-1.359,0.021-2.042c0.601-0.019,1.203-0.034,1.804-0.044
			c0.002-0.419,0.004-0.836,0.007-1.254c-0.599,0.011-1.199,0.027-1.799,0.048c0.007-0.681,0.015-1.361,0.022-2.041
			C78.477,36.579,79.169,36.562,79.864,36.551z"/>
		<path fill="#ED174D" d="M84.711,38.178c-0.004-0.384-0.006-0.769-0.01-1.155c-0.012-1.125-0.632-1.71-1.862-1.728
			c-0.668-0.007-1.338-0.007-2.007-0.004c-0.004,2.612-0.008,5.221-0.012,7.832c0.52-0.002,1.039-0.004,1.562,0
			c-0.001-1.124-0.005-2.246-0.007-3.371c0.027,0,0.054,0.001,0.083,0.001c0.356,1.126,0.717,2.253,1.082,3.381
			c0.565,0.01,1.134,0.023,1.701,0.04c-0.513-1.215-1.024-2.431-1.528-3.641C84.387,39.336,84.719,38.887,84.711,38.178z
			 M82.879,38.561c-0.05,0.015-0.156,0.021-0.323,0.019c-0.062,0-0.123,0-0.185-0.001c-0.002-0.68-0.002-1.359-0.006-2.04
			c0.115,0.001,0.23,0.003,0.347,0.004c0.301,0.002,0.451,0.152,0.453,0.449c0.004,0.385,0.004,0.77,0.008,1.155
			C83.172,38.361,83.076,38.5,82.879,38.561z"/>
		<path fill="#ED174D" d="M89.245,35.545c-1.2-0.081-2.398-0.144-3.601-0.187c0.03,2.612,0.064,5.222,0.09,7.832
			c1.229,0.044,2.459,0.107,3.685,0.188c-0.008-0.415-0.02-0.832-0.027-1.248c-0.702-0.048-1.406-0.089-2.11-0.122
			c-0.012-0.681-0.022-1.361-0.033-2.041c0.604,0.029,1.203,0.063,1.806,0.102c-0.009-0.418-0.019-0.836-0.026-1.254
			c-0.602-0.04-1.199-0.072-1.799-0.103c-0.013-0.681-0.023-1.361-0.034-2.041c0.694,0.034,1.386,0.076,2.079,0.122
			C89.265,36.378,89.256,35.961,89.245,35.545z"/>
		<path fill="#ED174D" d="M90.213,35.785c0.063,2.611,0.127,5.223,0.192,7.835c0.504,0.038,1.008,0.08,1.513,0.125
			c-0.038-1.254-0.074-2.503-0.11-3.754c0.367,1.279,0.732,2.562,1.104,3.846c0.518,0.048,1.034,0.103,1.546,0.159
			c-0.093-2.613-0.187-5.228-0.282-7.839c-0.477-0.055-0.954-0.106-1.433-0.152c0.042,1.288,0.081,2.574,0.123,3.861
			c-0.384-1.32-0.765-2.639-1.143-3.956C91.219,35.866,90.716,35.823,90.213,35.785z"/>
		<path fill="#ED174D" d="M97.311,37.512c0.003,0.001,0.006,0.001,0.008,0.002c0.303,0.042,0.462,0.214,0.475,0.508
			c0.018,0.37,0.035,0.743,0.049,1.113c0.516,0.073,1.031,0.149,1.547,0.23c-0.017-0.373-0.036-0.743-0.057-1.114
			c-0.056-1.129-0.747-1.802-2.07-1.985c-1.323-0.181-1.961,0.31-1.919,1.436c0.061,1.564,0.124,3.132,0.184,4.698
			c0.042,1.132,0.74,1.771,2.095,1.956c1.354,0.185,2.004-0.271,1.944-1.402c-0.016-0.372-0.034-0.743-0.053-1.114
			c-0.52-0.08-1.037-0.155-1.556-0.229c0.017,0.37,0.033,0.743,0.053,1.114c0.012,0.293-0.136,0.418-0.444,0.375
			c-0.308-0.041-0.468-0.208-0.479-0.504c-0.067-1.566-0.134-3.134-0.203-4.7C96.87,37.599,97.013,37.472,97.311,37.512z"/>
		<path fill="#ED174D" d="M101.87,37.098c-0.512-0.092-1.023-0.179-1.534-0.264c0.139,2.616,0.277,5.234,0.416,7.85
			c0.521,0.086,1.045,0.175,1.567,0.267C102.17,42.333,102.021,39.716,101.87,37.098z"/>
		<path fill="#ED174D" d="M106.399,45.744c0.529,0.112,1.059,0.228,1.587,0.347c-0.218-0.975-0.435-1.949-0.651-2.922
			c-0.435-1.752-0.865-3.502-1.292-5.25c-0.665-0.143-1.329-0.28-1.993-0.41c-0.203,1.621-0.414,3.246-0.63,4.87
			c-0.092,0.908-0.185,1.814-0.276,2.721c0.524,0.098,1.052,0.198,1.578,0.302c0.053-0.528,0.107-1.054,0.158-1.58
			c0.384,0.075,0.767,0.155,1.15,0.234C106.154,44.619,106.274,45.182,106.399,45.744z M104.997,42.602
			c0.072-0.766,0.144-1.533,0.217-2.302c0.175,0.818,0.353,1.637,0.531,2.455C105.495,42.705,105.246,42.652,104.997,42.602z"/>
		<path fill="#FFFFFF" d="M51.672,65.743c-0.877-4.488-1.722-8.968-2.532-13.44c-1.687,0.398-3.37,0.824-5.057,1.283
			c-0.768,9.639-1.53,19.28-2.289,28.924c1.751-0.469,3.5-0.905,5.248-1.311c0.317-4.611,0.634-9.222,0.952-13.831
			c0.8,4.347,1.635,8.703,2.501,13.066c1.787-0.374,3.571-0.714,5.356-1.022c0.492-9.598,0.987-19.196,1.485-28.793
			c-1.596,0.281-3.192,0.589-4.788,0.924C52.257,56.277,51.964,61.011,51.672,65.743z"/>
		<path fill="#FFFFFF" d="M66.419,78.417c4.696-0.475,7.072-2.618,7.132-6.758c0.091-5.736,0.185-11.473,0.274-17.208
			c0.062-4.116-2.109-6.113-6.508-5.67c-4.389,0.467-6.683,2.921-6.873,7.049c-0.255,5.747-0.512,11.495-0.765,17.243
			C59.489,77.235,61.736,78.905,66.419,78.417z M65.032,72.371c0.193-5.742,0.386-11.482,0.579-17.225
			c0.035-1.078,0.554-1.68,1.553-1.784c0.011-0.001,0.021-0.003,0.029-0.004c1.011-0.093,1.501,0.403,1.473,1.474
			c-0.154,5.739-0.311,11.477-0.465,17.217c-0.03,1.082-0.575,1.667-1.641,1.774C65.505,73.932,64.997,73.455,65.032,72.371z"/>
		<path fill="#FFFFFF" d="M86.441,77.271c1.969,0.064,3.934,0.168,5.902,0.312c-1.837-4.534-3.63-9.038-5.376-13.506
			c2.293-0.674,3.404-2.271,3.355-4.876c-0.026-1.41-0.057-2.819-0.083-4.23c-0.084-4.119-2.176-6.363-6.273-6.455
			c-2.228-0.041-4.459-0.027-6.686,0.044c-0.086,9.563-0.171,19.133-0.253,28.697c1.805-0.053,3.611-0.076,5.416-0.065
			c-0.011-4.113-0.019-8.227-0.03-12.341c0.097,0.001,0.191,0.001,0.288,0.002C83.914,68.976,85.162,73.115,86.441,77.271z
			 M82.405,60.55c-0.006-2.495-0.012-4.988-0.017-7.482c0.386,0.003,0.771,0.007,1.16,0.013c1.008,0.015,1.515,0.574,1.525,1.665
			c0.012,1.41,0.023,2.82,0.035,4.228c0.004,0.784-0.32,1.287-0.978,1.513c-0.167,0.053-0.534,0.076-1.099,0.07
			C82.822,60.554,82.615,60.552,82.405,60.55z"/>
		<path fill="#FFFFFF" d="M105.481,50.582c-4.41-0.77-8.815-1.325-13.222-1.669c0.036,1.524,0.071,3.05,0.108,4.574
			c1.365,0.107,2.73,0.234,4.099,0.378c0.26,8.053,0.519,16.105,0.781,24.157c1.805,0.191,3.607,0.415,5.418,0.673
			c-0.35-8.059-0.696-16.12-1.049-24.179c1.369,0.198,2.738,0.416,4.106,0.654C105.645,53.639,105.565,52.111,105.481,50.582z"/>
		<path fill="#FFFFFF" d="M122.349,82.8c-0.125-1.537-0.249-3.073-0.374-4.61c-2.433-0.67-4.858-1.279-7.287-1.827
			c-0.172-2.509-0.34-5.018-0.509-7.525c2.055,0.469,4.114,0.976,6.174,1.532c-0.127-1.54-0.247-3.081-0.371-4.623
			c-2.037-0.551-4.076-1.057-6.114-1.521c-0.172-2.509-0.34-5.017-0.513-7.525c2.332,0.534,4.666,1.125,7.002,1.775
			c-0.127-1.538-0.253-3.074-0.38-4.61c-4.021-1.122-8.034-2.067-12.047-2.836c0.55,9.602,1.1,19.205,1.645,28.809
			C113.83,80.643,118.087,81.632,122.349,82.8z"/>
		<path fill="#BA8854" d="M100.66,17.646c-1.075,1.675-2.148,3.355-3.22,5.041c1.211,0.046,2.425,0.099,3.639,0.155
			C100.939,21.11,100.8,19.378,100.66,17.646z"/>
		<path fill="#BA8854" d="M66.545,18.154c-0.717,1.188-1.433,2.379-2.148,3.57c0.817-0.034,1.633-0.067,2.451-0.097
			C66.747,20.471,66.646,19.312,66.545,18.154z"/>
		<path fill="#BA8854" d="M30.465,50.908c8.562-6.049,17.044-9.5,17.042-9.497c-4.926-0.071-6.14-0.156-11.029-0.126
			c0.006,0,0.358-0.322,1.131-0.869c3.501-2.31,15.706-10.121,44.148-10.643c0.046,0,0.091-0.001,0.137-0.001
			c0.045,0,0.091,0,0.137,0.001c28.322,0.528,40.544,8.29,44.104,10.631c0.803,0.566,1.167,0.901,1.174,0.901
			c-4.89-0.033-6.142-0.08-11.068-0.01c-0.003-0.003,8.388,3.491,16.897,9.498c1.365,0.962,2.733,1.984,4.071,3.061
			c0.311,0.25,0.62,0.501,0.926,0.758c0.06,0.048,0.119,0.097,0.176,0.146c-0.629-6.248-1.77-17.463-1.771-17.463
			c0.002,0-0.078-0.112-0.243-0.318c-0.204-0.253-0.538-0.646-1.013-1.144c-0.293-0.307-0.64-0.655-1.043-1.029
			c-1.312-1.228-3.215-2.768-5.778-4.268c-0.389,1.413-0.781,2.826-1.182,4.24c-0.074-1.215-0.149-2.431-0.226-3.646
			c-0.028-0.474-0.057-0.949-0.088-1.423c-0.498-5.834-0.879-10.274-0.879-10.274c-0.01-0.001-0.259-0.202-0.758-0.551
			c-0.396-0.278-0.951-0.649-1.673-1.091c-4.995-2.966-18.022-9.707-41.763-9.546c-23.178-0.172-36.148,6.259-41.396,9.306
			c-1.126,0.67-1.898,1.205-2.341,1.525c-0.299,0.216-0.45,0.337-0.457,0.337c-0.001,0-0.383,4.439-0.881,10.275
			c-0.048,0.773-0.096,1.547-0.144,2.321c-0.056,0.916-0.113,1.831-0.169,2.747c-0.398-1.414-0.793-2.827-1.182-4.241
			c-2.565,1.5-4.465,3.039-5.778,4.266c-0.682,0.637-1.205,1.189-1.579,1.611c-0.361,0.407-0.581,0.692-0.672,0.812
			c-0.032,0.042-0.05,0.068-0.05,0.068s-0.852,8.371-1.489,14.678c-0.101,0.992-0.196,1.935-0.282,2.783
			c0.266-0.222,0.534-0.443,0.802-0.661C27.65,52.957,29.059,51.899,30.465,50.908z M57.904,15.384
			c0.292-0.061,0.585-0.119,0.878-0.179c1.099-0.248,2.198-0.49,3.297-0.727c-0.008,0.027-0.016,0.055-0.025,0.083
			c0.031-0.007,0.062-0.013,0.093-0.02c0,0-0.038,0.016-0.097,0.042c-0.775,2.575-1.551,5.152-2.325,7.73
			c1.135-0.062,2.27-0.118,3.404-0.17c0.975-1.639,1.95-3.275,2.927-4.908c-0.244-0.105-0.643-0.332-0.643-0.332
			c1.121-0.208,2.243-0.411,3.365-0.61c0,0-0.103,0.042-0.264,0.106c0.081-0.022,0.163-0.042,0.244-0.063
			c0.312,2.507,0.626,5.013,0.938,7.521c-1.148,0.1-2.59,0.151-2.707-1.043c-1.028,0.034-2.056,0.073-3.083,0.116
			c-0.23,0.398-0.459,0.796-0.688,1.194c-0.433,0.02-0.866,0.04-1.299,0.062c0.003-0.004,0.006-0.008,0.008-0.012
			c-1.069,0.056-2.137,0.117-3.206,0.181c-1.518,0.086-2.5-0.389-1.99-1.896c0.169-0.588,1.447-5.118,1.896-6.705
			C58.328,15.619,57.904,15.384,57.904,15.384z M72.643,12.91c2.122-0.355,4.246-0.692,6.37-1.014
			c-1.132,3.683-2.263,7.372-3.393,11.064c1.778-0.032,3.557-0.05,5.335-0.059c-0.281,0.95-0.562,1.902-0.841,2.853
			c-1.979,0.008-3.958,0.032-5.936,0.069c-2.172,0.041-3.572-0.687-2.843-2.814c0.243-0.818,2.024-7.02,2.698-9.364
			C73.661,13.508,72.643,12.91,72.643,12.91z M82.396,15.773c0.626-0.088,1.251-0.175,1.875-0.262
			c0.958-0.156,1.918-0.308,2.875-0.458c-0.201,0.653-0.404,1.303-0.607,1.954c-0.115,0.378-0.231,0.755-0.348,1.132
			c1.227-2.002,3.405-3.433,5.829-3.371c1.393,0.032,4.179,0.124,4.179,0.126c-0.205,0.6-0.411,1.202-0.616,1.802
			c0,0-2.009-0.064-3.018-0.09c-2.188-0.056-3.444,2.833-3.617,4.619c-0.187,1.956,0.685,2.698,2.499,2.802
			c0.349-1.184,0.696-2.368,1.046-3.552c-0.284-0.131-0.924-0.537-0.924-0.537c1.154-0.14,2.31-0.274,3.462-0.406
			c0.332-0.049,0.664-0.099,0.995-0.148c-0.001,0.014-0.003,0.026-0.007,0.04c-0.555,1.846-1.111,3.693-1.664,5.541
			c1.768-2.79,3.538-5.568,5.311-8.336c-0.36-0.173-0.861-0.447-0.861-0.447c0.433-0.077,0.865-0.152,1.297-0.228
			c0.008-0.011,0.017-0.021,0.023-0.031c1.276-0.239,2.556-0.473,3.832-0.699c0.447,3.765,0.894,7.532,1.339,11.299
			c-1.704,0-3.847-0.104-4.012-1.894c-1.567-0.074-3.137-0.14-4.704-0.197c-0.302,0.517-0.603,1.034-0.904,1.552
			c-0.645-0.022-1.287-0.042-1.929-0.062v-0.001c-1.282-0.037-2.562-0.069-3.843-0.095c-2.819,0.007-4.831-1.53-4.741-4.352
			c-0.438,1.425-0.875,2.853-1.312,4.279c-1.095-0.004-2.19-0.006-3.286-0.003c0.424-1.439,2.184-7.447,2.774-9.458
			C83.051,16.172,82.396,15.773,82.396,15.773z"/>
	</g>
</g>
</svg>
