<?xml version="1.0" encoding="utf-8"?>
<!-- Generator: Adobe Illustrator 16.0.0, SVG Export Plug-In . SVG Version: 6.00 Build 0)  -->
<!DOCTYPE svg PUBLIC "-//W3C//DTD SVG 1.1//EN" "http://www.w3.org/Graphics/SVG/1.1/DTD/svg11.dtd">
<svg version="1.1" id="Layer_1" xmlns="http://www.w3.org/2000/svg" xmlns:xlink="http://www.w3.org/1999/xlink" x="0px" y="0px"
	 width="166.139px" height="166.139px" viewBox="0 0 166.139 166.139" enable-background="new 0 0 166.139 166.139"
	 xml:space="preserve">
<path fill="#44BDED" d="M151.793,119.189c-2.133-20.968-4.083-39.93-6.322-61.484c-0.051-0.482-0.151-0.954-0.302-1.411
	c0.137-0.667,0.173-1.354,0.105-2.026c-0.314-3.12-0.757-7.479-1.12-11.059l-0.598-5.879c-0.009-0.087-0.019-0.179-0.029-0.275
	c-0.048-0.634-0.188-1.264-0.416-1.873c-0.285-0.802-0.703-1.522-1.241-2.143l-0.079-0.099c-0.409-0.507-0.873-1.032-1.376-1.559
	c-0.409-0.43-0.854-0.87-1.322-1.307c-1.63-1.523-3.453-2.937-5.434-4.212l-0.562-6.556c-0.184-2.133-1.169-3.942-2.776-5.098
	c-0.147-0.112-0.433-0.326-0.864-0.629c-0.62-0.434-1.316-0.887-2.096-1.363C115.814,5.357,100.486,1.733,83.035,1.733
	c-0.278,0-0.556,0-0.809,0.002c-0.31-0.002-0.618-0.003-0.924-0.003c-17.166,0-32.334,3.54-43.885,10.248
	c-1.051,0.626-2.007,1.249-2.837,1.85c-0.237,0.171-0.404,0.297-0.492,0.364l-0.075,0.057c-0.022,0.017-0.044,0.033-0.066,0.05
	l-1.719,1.295l0.227,0.309c-0.636,0.969-1.027,2.12-1.136,3.383l-0.561,6.553c-1.98,1.275-3.804,2.688-5.432,4.209
	c-0.736,0.688-1.417,1.383-2.024,2.069c-0.481,0.544-0.816,0.969-1.014,1.231c-0.827,1.099-1.31,2.373-1.4,3.688
	c-0.005,0.047-0.01,0.094-0.015,0.141l-0.467,4.595c-0.292,2.877-0.665,6.541-0.983,9.69l-0.281,2.777
	c-0.058,0.565-0.044,1.129,0.039,1.685c-0.204,0.542-0.338,1.108-0.398,1.692c-2.225,21.414-4.177,40.403-6.331,61.571
	c-0.289,2.836,1.245,5.57,3.817,6.803c19.817,9.497,40.638,22.088,61.883,37.426c1.164,0.839,2.536,1.283,3.971,1.283
	c1.434,0,2.807-0.443,3.97-1.283c21.247-15.339,42.068-27.931,61.884-37.425C150.548,124.76,152.082,122.026,151.793,119.189z"/>
<path fill="#1B2740" d="M149.489,119.422c-2.137-20.992-4.086-39.953-6.322-61.478c-0.056-0.529-0.203-1.04-0.436-1.509
	c0.22-0.616,0.305-1.278,0.238-1.936c-0.314-3.119-0.757-7.478-1.12-11.057l-0.598-5.883c-0.01-0.09-0.02-0.187-0.031-0.288
	c-0.027-0.437-0.123-0.872-0.286-1.295c-0.192-0.551-0.476-1.038-0.842-1.452c-0.035-0.044-0.068-0.087-0.104-0.129
	c-0.369-0.457-0.791-0.935-1.252-1.417c-0.379-0.398-0.792-0.806-1.226-1.212c-1.788-1.67-3.825-3.2-6.061-4.553l-0.66-7.708
	c-0.143-1.646-0.89-2.752-1.839-3.428l-0.016-0.011c-0.131-0.1-0.397-0.301-0.808-0.588c-0.58-0.406-1.229-0.829-1.95-1.269
	C114.989,7.561,100.071,4.049,83.035,4.049c-0.279,0-0.557,0-0.81,0.002c-0.31-0.002-0.618-0.003-0.923-0.003
	c-16.758,0-31.517,3.427-42.701,9.922c-0.993,0.591-1.891,1.176-2.667,1.738c-0.217,0.157-0.369,0.271-0.455,0.337l-0.036,0.027l0,0
	c-0.94,0.678-1.678,1.78-1.819,3.414l-0.661,7.706c-2.237,1.352-4.273,2.881-6.06,4.55c-0.683,0.638-1.312,1.281-1.871,1.912
	c-0.456,0.515-0.758,0.902-0.897,1.087c-0.569,0.756-0.894,1.621-0.943,2.508c-0.007,0.054-0.013,0.109-0.019,0.164l-0.467,4.595
	c-0.292,2.876-0.664,6.541-0.982,9.688l-0.281,2.778c-0.059,0.581-0.003,1.16,0.158,1.708c-0.279,0.513-0.457,1.08-0.518,1.673
	c-2.227,21.43-4.179,40.418-6.331,61.567c-0.19,1.868,0.82,3.668,2.514,4.48c19.94,9.555,40.881,22.218,62.238,37.636
	c0.766,0.553,1.67,0.845,2.615,0.845c0.944,0,1.849-0.292,2.614-0.845c21.359-15.42,42.3-28.083,62.239-37.636
	C148.669,123.092,149.68,121.292,149.489,119.422z"/>
<g>
	<path fill="#44BDED" d="M138.725,58.407c-0.868-0.764-1.736-1.525-2.604-2.283c-0.784-0.684-1.607-1.347-2.458-1.989
		c1.572,16.442,3.04,31.899,4.657,49.083c-14.866-11.698-26.502-13.64-26.494-13.66c16.583,6.345,24.305,19.62,27.446,26.711
		c-1.74,0.885-3.494,1.801-5.262,2.74c-2.066-4.59-4.845-9.016-8.248-13.115c-3.533-4.258-7.647-8.066-12.227-11.273
		c-9.53-6.672-20.356-10.29-31.707-10.278c-11.238,0.004-21.979,3.574-31.452,10.145c-4.553,3.158-8.657,6.912-12.194,11.111
		c-3.458,4.105-6.293,8.55-8.413,13.164c-1.634-0.865-3.259-1.711-4.869-2.531c3.155-7.103,10.878-20.332,27.422-26.665
		c0.008,0.02-11.573,1.955-26.391,13.587c1.618-17.186,3.084-32.644,4.659-49.093c-0.894,0.669-1.757,1.363-2.577,2.078
		c-0.829,0.724-1.657,1.45-2.486,2.179c-2.087,20.098-4.059,39.246-6.329,61.557c19.276,9.237,40.232,21.662,62.923,38.042
		c22.689-16.38,43.646-28.806,62.924-38.042C142.778,97.597,140.809,78.472,138.725,58.407z M34.435,120.108
		c2.555-5.791,6.45-11.363,11.288-16.109c1.24-1.004,3.746-2.843,6.78-3.958c1.241-0.409,2.388-0.695,3.405-0.856
		c0.541-0.069,1.043-0.106,1.542-0.11c0.135-0.002,0.267-0.003,0.402-0.006c0.002-0.014,0.007-0.03,0.01-0.046
		c2.118,0.01,3.626,0.728,4.496,2.121C48.68,104.716,39.826,113.186,34.435,120.108z M37.782,123.138
		c6.579-9.025,15.132-15.134,25.638-17.803c-0.502,3.263-3.334,7.728-8.396,13.113c-3.061,3.236-5.614,6.703-7.611,10.295
		C44.161,126.79,40.948,124.92,37.782,123.138z M79.526,149.971c-9.62-6.924-18.924-13.127-27.908-18.669
		c1.809-3.562,4.291-7.05,7.4-10.355c5.698-6.055,8.784-11.164,9.375-15.375c0.044-0.319,0.069-0.641,0.076-0.954
		c0.037-1.615-0.402-3.024-0.874-4.302c-1.507-4.059-5.557-5.391-9.118-5.665c6.622-3.508,13.902-5.544,21.298-5.859
		C79.691,109.184,79.609,129.579,79.526,149.971z M84.78,149.927c-0.086-20.368-0.17-40.736-0.256-61.104
		c7.162,0.393,14.217,2.4,20.624,5.78c-3.598,0.267-7.69,1.598-9.213,5.687c-0.475,1.282-0.911,2.691-0.879,4.303
		c0.009,0.307,0.032,0.629,0.078,0.957c0.582,4.207,3.662,9.31,9.357,15.354c3.218,3.424,5.763,7.04,7.581,10.736
		C103.28,137.085,94.181,143.162,84.78,149.927z M116.297,129.064c-2.021-3.727-4.64-7.316-7.809-10.663
		c-5.056-5.374-7.883-9.835-8.379-13.098c10.62,2.681,19.244,8.876,25.849,18.06c0.008,0.014,0.019,0.03,0.027,0.043
		C122.801,125.205,119.568,127.092,116.297,129.064z M101.174,101.109c0.874-1.396,2.385-2.117,4.505-2.129
		c0.003,0.016,0.007,0.032,0.01,0.046c0.132,0.002,0.263,0.002,0.396,0.005c0.493,0.003,1.011,0.041,1.518,0.106
		c1.041,0.16,2.189,0.444,3.417,0.848c3.581,1.312,6.388,3.577,7.446,4.501c4.659,4.693,8.402,10.17,10.854,15.85
		C123.956,113.357,115.052,104.709,101.174,101.109z"/>
	<path fill="#44BDED" d="M58.437,45.842c1.355-0.275,2.067-0.959,2.131-2.087c0.022-0.37,0.043-0.741,0.066-1.112
		c-0.518,0.095-1.036,0.194-1.555,0.296c-0.022,0.372-0.045,0.742-0.07,1.114c-0.019,0.293-0.183,0.47-0.492,0.533
		c-0.306,0.062-0.45-0.053-0.432-0.347c0.104-1.568,0.207-3.136,0.308-4.703c0.02-0.299,0.179-0.477,0.478-0.538
		c0.002,0,0.004-0.001,0.009-0.002c0.301-0.058,0.441,0.061,0.423,0.356c-0.022,0.37-0.045,0.741-0.068,1.111
		c0.515-0.102,1.027-0.2,1.542-0.295c0.023-0.372,0.043-0.742,0.066-1.113c0.066-1.126-0.563-1.573-1.89-1.305
		c-1.32,0.271-2.023,0.986-2.102,2.114c-0.109,1.569-0.219,3.138-0.326,4.706C56.446,45.703,57.083,46.114,58.437,45.842z"/>
	<path fill="#44BDED" d="M63.482,44.935c1.353-0.215,2.056-0.87,2.105-1.997c0.07-1.565,0.141-3.129,0.211-4.694
		c0.049-1.125-0.587-1.598-1.909-1.39c-1.319,0.213-2.013,0.899-2.075,2.025c-0.088,1.565-0.176,3.131-0.263,4.698
		C61.488,44.709,62.131,45.15,63.482,44.935z M63.354,38.618c0.015-0.296,0.172-0.469,0.469-0.516
		c0.001-0.001,0.006-0.001,0.009-0.002c0.299-0.045,0.443,0.08,0.429,0.374c-0.076,1.565-0.153,3.129-0.229,4.695
		c-0.015,0.293-0.178,0.463-0.486,0.514c-0.305,0.048-0.45-0.074-0.436-0.368C63.19,41.749,63.271,40.183,63.354,38.618z"/>
	<path fill="#44BDED" d="M68.295,40.399c0.282,1.209,0.568,2.421,0.855,3.635c0.513-0.056,1.028-0.11,1.542-0.16
		c0.081-2.607,0.16-5.216,0.24-7.823c-0.476,0.046-0.955,0.095-1.432,0.148c-0.043,1.285-0.09,2.57-0.133,3.855
		c-0.3-1.247-0.595-2.492-0.886-3.738c-0.501,0.061-1.006,0.124-1.51,0.189c-0.109,2.61-0.218,5.221-0.328,7.831
		c0.504-0.066,1.006-0.129,1.511-0.189C68.203,42.898,68.25,41.648,68.295,40.399z"/>
	<path fill="#44BDED" d="M75.699,36.932c0.009-0.415,0.015-0.83,0.022-1.247c-1.198,0.066-2.397,0.152-3.595,0.255
		c-0.071,2.607-0.144,5.215-0.216,7.823c0.521-0.046,1.042-0.086,1.563-0.124c0.024-1.096,0.051-2.189,0.074-3.285
		c0.603-0.043,1.203-0.083,1.803-0.118c0.006-0.416,0.016-0.833,0.023-1.25c-0.598,0.034-1.197,0.074-1.796,0.117
		c0.014-0.678,0.031-1.359,0.047-2.037C74.318,37.014,75.009,36.971,75.699,36.932z"/>
	<path fill="#44BDED" d="M80.182,36.774c0.002-0.416,0.002-0.832,0.005-1.247c-1.198,0.019-2.396,0.058-3.596,0.114
		c-0.037,2.606-0.075,5.213-0.113,7.819c1.223-0.058,2.449-0.096,3.673-0.115c0.002-0.416,0.004-0.831,0.006-1.247
		c-0.702,0.012-1.403,0.029-2.107,0.052c0.008-0.68,0.016-1.358,0.022-2.038c0.6-0.02,1.2-0.035,1.801-0.045
		c0.003-0.418,0.004-0.835,0.007-1.252c-0.598,0.01-1.197,0.027-1.795,0.047c0.008-0.679,0.015-1.358,0.023-2.037
		C78.798,36.802,79.489,36.785,80.182,36.774z"/>
	<path fill="#44BDED" d="M85.021,38.398c-0.003-0.383-0.006-0.769-0.01-1.154c-0.012-1.123-0.629-1.708-1.858-1.725
		c-0.667-0.006-1.335-0.007-2.003-0.003c-0.004,2.605-0.008,5.211-0.013,7.818c0.519-0.004,1.038-0.005,1.56-0.001
		c-0.001-1.121-0.005-2.242-0.007-3.364c0.026,0,0.054,0.001,0.083,0.001c0.354,1.124,0.715,2.249,1.078,3.375
		c0.565,0.011,1.134,0.024,1.7,0.041c-0.513-1.214-1.022-2.426-1.526-3.634C84.696,39.554,85.028,39.106,85.021,38.398z
		 M83.192,38.781c-0.05,0.015-0.155,0.02-0.322,0.019c-0.063,0-0.124,0-0.186,0c-0.002-0.68-0.003-1.358-0.006-2.037
		c0.116,0.001,0.23,0.002,0.345,0.003c0.302,0.003,0.451,0.153,0.454,0.45c0.002,0.384,0.002,0.769,0.006,1.153
		C83.483,38.581,83.389,38.719,83.192,38.781z"/>
	<path fill="#44BDED" d="M89.548,35.77c-1.197-0.081-2.396-0.143-3.595-0.185c0.031,2.606,0.062,5.212,0.092,7.817
		c1.225,0.044,2.451,0.106,3.675,0.187c-0.008-0.414-0.019-0.829-0.026-1.246c-0.702-0.047-1.404-0.087-2.106-0.121
		c-0.012-0.679-0.023-1.359-0.033-2.037c0.601,0.029,1.201,0.063,1.802,0.102c-0.009-0.417-0.019-0.834-0.026-1.251
		c-0.599-0.039-1.197-0.073-1.796-0.102c-0.012-0.68-0.022-1.358-0.032-2.037c0.691,0.035,1.382,0.075,2.074,0.122
		C89.566,36.602,89.558,36.187,89.548,35.77z"/>
	<path fill="#44BDED" d="M90.512,36.009c0.065,2.608,0.128,5.215,0.192,7.822c0.505,0.038,1.008,0.079,1.511,0.124
		c-0.038-1.25-0.073-2.499-0.108-3.748c0.363,1.279,0.73,2.558,1.102,3.84c0.516,0.048,1.03,0.103,1.543,0.159
		c-0.093-2.609-0.186-5.219-0.281-7.826c-0.476-0.054-0.953-0.104-1.431-0.151c0.042,1.285,0.081,2.57,0.122,3.854
		c-0.384-1.317-0.763-2.634-1.141-3.949C91.518,36.09,91.015,36.048,90.512,36.009z"/>
	<path fill="#44BDED" d="M97.599,37.734c0.002,0,0.005,0.001,0.008,0.001c0.301,0.043,0.459,0.214,0.474,0.508
		c0.018,0.37,0.033,0.742,0.05,1.111c0.515,0.074,1.027,0.149,1.541,0.229c-0.016-0.371-0.034-0.741-0.055-1.112
		c-0.057-1.126-0.746-1.797-2.067-1.981c-1.319-0.18-1.957,0.309-1.914,1.433c0.061,1.563,0.121,3.126,0.182,4.691
		c0.042,1.129,0.74,1.768,2.091,1.952c1.353,0.184,2.001-0.271,1.943-1.4c-0.018-0.37-0.036-0.741-0.055-1.111
		c-0.518-0.08-1.035-0.156-1.553-0.23c0.017,0.371,0.033,0.741,0.053,1.111c0.013,0.293-0.136,0.418-0.443,0.376
		c-0.308-0.042-0.468-0.208-0.479-0.503c-0.066-1.563-0.134-3.128-0.202-4.692C97.158,37.821,97.3,37.693,97.599,37.734z"/>
	<path fill="#44BDED" d="M102.148,37.319c-0.511-0.091-1.021-0.177-1.53-0.262c0.138,2.611,0.276,5.225,0.415,7.835
		c0.521,0.086,1.043,0.175,1.564,0.268C102.449,42.546,102.3,39.934,102.148,37.319z"/>
	<path fill="#44BDED" d="M106.671,45.951c0.527,0.112,1.057,0.227,1.584,0.346c-0.219-0.972-0.435-1.945-0.65-2.917
		c-0.436-1.749-0.864-3.495-1.289-5.241c-0.664-0.143-1.327-0.279-1.991-0.409c-0.202,1.619-0.412,3.24-0.627,4.861
		c-0.091,0.907-0.185,1.811-0.275,2.717c0.522,0.097,1.049,0.196,1.573,0.301c0.054-0.527,0.107-1.053,0.159-1.577
		c0.383,0.075,0.765,0.154,1.148,0.234C106.425,44.828,106.547,45.39,106.671,45.951z M105.271,42.814
		c0.072-0.766,0.144-1.531,0.217-2.298c0.175,0.817,0.352,1.634,0.528,2.451C105.769,42.916,105.519,42.864,105.271,42.814z"/>
	<path fill="#BA8854" d="M100.941,17.903c-1.072,1.673-2.145,3.35-3.216,5.032c1.211,0.046,2.423,0.098,3.634,0.155
		C101.22,21.361,101.081,19.632,100.941,17.903z"/>
	<path fill="#BA8854" d="M66.888,18.411c-0.715,1.186-1.43,2.374-2.145,3.563c0.815-0.035,1.631-0.067,2.446-0.097
		C67.089,20.722,66.988,19.566,66.888,18.411z"/>
	<path fill="#BA8854" d="M30.873,51.105c8.546-6.038,17.013-9.483,17.011-9.48c-4.918-0.07-6.129-0.155-11.01-0.125
		c0.006-0.001,0.358-0.322,1.129-0.868c3.495-2.306,15.679-10.104,44.069-10.625c0.046,0,0.091-0.001,0.137-0.001
		s0.091,0.001,0.136,0.001c28.271,0.528,40.472,8.275,44.024,10.613c0.802,0.565,1.166,0.898,1.173,0.898
		c-4.881-0.032-6.131-0.079-11.049-0.01c-0.002-0.002,8.374,3.486,16.867,9.482c1.363,0.959,2.729,1.98,4.064,3.055
		c0.311,0.249,0.618,0.501,0.924,0.757c0.06,0.049,0.119,0.097,0.177,0.146c-0.629-6.236-1.768-17.432-1.768-17.431
		c0.001,0-0.08-0.114-0.244-0.318c-0.205-0.253-0.537-0.646-1.011-1.142c-0.292-0.307-0.64-0.654-1.041-1.028
		c-1.312-1.225-3.209-2.762-5.768-4.26c-0.389,1.411-0.782,2.821-1.181,4.232c-0.073-1.213-0.148-2.426-0.224-3.64
		c-0.029-0.474-0.06-0.947-0.088-1.42c-0.499-5.825-0.879-10.256-0.879-10.256c-0.009-0.001-0.257-0.201-0.756-0.55
		c-0.395-0.277-0.949-0.648-1.67-1.088c-4.986-2.961-17.99-9.689-41.689-9.529c-23.136-0.171-36.083,6.248-41.322,9.29
		c-1.124,0.669-1.895,1.202-2.337,1.522c-0.299,0.216-0.449,0.336-0.457,0.337c0,0-0.381,4.431-0.879,10.255
		c-0.048,0.773-0.095,1.545-0.143,2.317c-0.057,0.915-0.113,1.828-0.17,2.743c-0.397-1.411-0.791-2.822-1.179-4.232
		c-2.56,1.498-4.457,3.033-5.768,4.257c-0.681,0.635-1.203,1.187-1.576,1.608c-0.36,0.407-0.581,0.69-0.672,0.811
		c-0.032,0.043-0.049,0.068-0.049,0.068s-0.851,8.357-1.487,14.652c-0.101,0.991-0.195,1.931-0.281,2.779
		c0.265-0.222,0.532-0.442,0.8-0.659C28.062,53.15,29.468,52.095,30.873,51.105z M58.261,15.646c0.292-0.06,0.585-0.12,0.877-0.179
		c1.097-0.246,2.194-0.489,3.291-0.727c-0.008,0.027-0.016,0.055-0.024,0.083c0.031-0.006,0.061-0.012,0.091-0.019
		c0,0-0.037,0.017-0.096,0.042c-0.774,2.57-1.548,5.143-2.32,7.717c1.133-0.062,2.266-0.118,3.398-0.17
		c0.973-1.636,1.947-3.269,2.921-4.898c-0.243-0.106-0.642-0.331-0.642-0.331c1.12-0.208,2.239-0.411,3.36-0.61
		c0,0-0.103,0.042-0.264,0.105c0.081-0.021,0.162-0.042,0.243-0.063c0.312,2.502,0.625,5.005,0.937,7.508
		c-1.146,0.1-2.585,0.15-2.702-1.041c-1.026,0.034-2.053,0.072-3.079,0.114c-0.229,0.397-0.458,0.795-0.688,1.193
		c-0.432,0.02-0.863,0.04-1.295,0.062c0.002-0.004,0.005-0.008,0.007-0.013c-1.067,0.056-2.133,0.116-3.2,0.181
		c-1.515,0.086-2.495-0.389-1.987-1.892c0.169-0.587,1.444-5.109,1.893-6.693C58.685,15.878,58.262,15.646,58.261,15.646z
		 M72.974,13.176c2.119-0.354,4.239-0.692,6.358-1.013c-1.13,3.677-2.259,7.358-3.386,11.045c1.775-0.031,3.55-0.051,5.325-0.059
		c-0.28,0.949-0.56,1.898-0.839,2.849c-1.975,0.008-3.95,0.031-5.925,0.067c-2.167,0.042-3.565-0.685-2.838-2.81
		c0.243-0.816,2.021-7.007,2.694-9.347C73.991,13.772,72.974,13.176,72.974,13.176z M82.71,16.035
		c0.624-0.089,1.248-0.177,1.872-0.263c0.956-0.155,1.913-0.307,2.869-0.456c-0.201,0.65-0.403,1.3-0.605,1.951
		c-0.116,0.376-0.232,0.753-0.349,1.129c1.225-1.998,3.398-3.426,5.818-3.365c1.392,0.032,4.172,0.124,4.172,0.126
		c-0.205,0.6-0.41,1.2-0.615,1.799c0-0.001-2.005-0.065-3.012-0.091c-2.186-0.057-3.438,2.828-3.61,4.611
		c-0.187,1.951,0.684,2.693,2.493,2.797c0.349-1.182,0.696-2.364,1.045-3.546c-0.282-0.132-0.922-0.536-0.922-0.536
		c1.151-0.14,2.304-0.274,3.455-0.405c0.332-0.049,0.664-0.099,0.995-0.147c-0.003,0.013-0.005,0.026-0.008,0.039
		c-0.555,1.843-1.109,3.687-1.663,5.532c1.766-2.785,3.533-5.559,5.303-8.322c-0.359-0.173-0.86-0.446-0.86-0.446
		c0.433-0.076,0.864-0.152,1.296-0.228c0.008-0.01,0.015-0.02,0.022-0.03c1.275-0.239,2.55-0.472,3.825-0.698
		c0.446,3.759,0.893,7.519,1.337,11.279c-1.701-0.001-3.839-0.105-4.005-1.89c-1.564-0.075-3.13-0.141-4.695-0.197
		c-0.301,0.516-0.602,1.032-0.902,1.549c-0.643-0.022-1.285-0.042-1.927-0.061c0,0,0-0.001,0-0.002
		c-1.278-0.038-2.557-0.069-3.834-0.094c-2.815,0.007-4.823-1.528-4.733-4.344c-0.438,1.423-0.874,2.848-1.312,4.272
		c-1.093-0.005-2.186-0.007-3.279-0.003c0.423-1.437,2.179-7.434,2.767-9.441C83.365,16.432,82.71,16.034,82.71,16.035z"/>
</g>
<g>
	<path fill="#FFFFFF" d="M66.832,49.003c-4.104,0.775-6.329,3.603-6.739,8.056c-0.088,0.998-0.177,1.995-0.265,2.993
		c-0.261,2.946,0.898,5.052,3.606,6.486c2.709,1.461,4.08,3.041,3.99,4.564c-0.07,1.207-0.139,2.412-0.209,3.619
		c-0.081,1.433-0.817,2.257-2.204,2.511c-1.399,0.261-2.043-0.307-1.937-1.746c0.103-1.425,0.206-2.852,0.309-4.277
		c-1.552,0.321-3.1,0.679-4.639,1.074c-0.127,1.431-0.254,2.862-0.38,4.293c-0.406,4.489,1.686,6.057,6.352,5.186
		c4.659-0.841,7.101-3.249,7.268-7.705c0.055-1.332,0.109-2.665,0.165-3.997c0.116-2.829-1.252-5.128-3.989-6.712
		c-2.732-1.583-3.99-2.997-3.889-4.419c0.07-0.962,0.139-1.923,0.209-2.884c0.104-1.436,0.782-2.29,2.042-2.524
		c0.01-0.002,0.021-0.003,0.03-0.005c1.272-0.224,1.863,0.396,1.784,1.815c-0.083,1.423-0.165,2.845-0.247,4.267
		c1.501-0.245,3.006-0.454,4.514-0.627c0.06-1.418,0.117-2.837,0.176-4.256C72.951,50.303,70.949,48.258,66.832,49.003z"/>
	<path fill="#FFFFFF" d="M84.748,47.978c0.04,8.476,0.079,16.951,0.12,25.427c0.006,1.429-0.694,2.124-2.111,2.133
		c-1.403,0.013-2.1-0.673-2.082-2.101c0.086-8.476,0.173-16.953,0.26-25.429c-1.457,0.041-2.913,0.117-4.366,0.227
		c-0.231,8.484-0.463,16.968-0.695,25.452c-0.132,4.452,2.151,6.409,6.869,6.356c4.728-0.03,7.035-2.022,6.925-6.461
		C89.483,65.1,89.3,56.62,89.114,48.139C87.66,48.05,86.204,47.997,84.748,47.978z"/>
	<path fill="#FFFFFF" d="M105.967,62.006c-0.133-1.597-0.267-3.193-0.398-4.791c-0.382-4.45-2.463-7.202-6.288-7.891
		c-2.097-0.363-4.202-0.654-6.314-0.871c0.388,10.538,0.775,21.074,1.162,31.611c1.63,0.167,3.257,0.375,4.879,0.62
		c-0.248-4.619-0.495-9.237-0.743-13.854c0.195,0.002,0.392,0.006,0.585,0.01c1.649,4.865,3.367,9.772,5.148,14.723
		c1.766,0.357,3.525,0.761,5.274,1.209c-2.232-5.41-4.384-10.749-6.449-16.021C105.17,66.355,106.202,64.815,105.967,62.006z
		 M100.379,62.84c-0.229,0.044-0.661,0.011-1.296-0.092c-0.349-0.056-0.697-0.111-1.048-0.164c-0.161-3.024-0.323-6.05-0.485-9.075
		c0.521,0.079,1.038,0.162,1.557,0.249c1.274,0.216,1.956,1.066,2.054,2.511c0.106,1.59,0.214,3.182,0.318,4.774
		C101.546,62.058,101.183,62.652,100.379,62.84z"/>
</g>
</svg>
